:SAMPLES-PER-SECOND 30
:FULLY-SPECIFIED
:DEGREES
281
root  60.9303 39.0535 12.1578 0.0315048 -15.4143 1.39616
RightUpLeg  -23.5348 -12.4228 -4.97196
RightLeg  28.2438 6.67086 3.65152
RightFoot  -1.72228 -0.970223 11.3469
RightToes  0.000482159 0.542163 -0.142577
Spine  42.3555 -1.7441 0.353284
Spine1  -11.0759 -1.33479 -0.139224
HEad  -29.7852 -20.6558 19.9088
LeftShoulder1  10.7116 -15.9356 -48.1022
LeftArm  -1.12565 22.1281 -22.4236
LeftForeArm  33.4459 -13.4652 -5.9633
LeftHand  -0.25398 0.0180481 5.50724
RightShoulder  5.08035 9.54815 32.9822
RightArm  -0.0499779 -4.90533 36.3295
RightForeArm  5.1965 40.977 9.39633
RightHand  -2.12723 6.02257 -21.7687
LeftUpLeg  -18.0973 25.8843 -2.25043
LeftLeg  22.9238 4.50986 2.32414
LeftFoot  -6.974 0.118 -1.99327
LeftToes  1.06245e-005 4.65855e-005 -8.18503e-006
282
root  60.8847 39.2754 12.8223 -0.372486 -18.0469 1.78744
RightUpLeg  -23.7034 -15.0717 -5.26196
RightLeg  29.0913 7.44172 4.23741
RightFoot  -0.659761 -1.41483 15.048
RightToes  0.000482159 0.542163 -0.142577
Spine  40.1142 -1.57769 -0.706133
Spine1  -10.5313 -1.46469 -0.185028
HEad  -28.4872 -21.6459 19.693
LeftShoulder1  10.5263 -15.5091 -48.3338
LeftArm  -1.98155 22.9973 -22.2651
LeftForeArm  34.352 -12.6004 -6.08138
LeftHand  -0.25398 0.0180481 5.50724
RightShoulder  5.0316 9.27023 33.4458
RightArm  -0.597778 -7.14196 36.0979
RightForeArm  1.99987 37.9474 8.62322
RightHand  -2.37607 6.56919 -23.1644
LeftUpLeg  -14.7207 27.6721 -0.98923
LeftLeg  20.7427 5.76284 0.987098
LeftFoot  -7.34944 0.115946 -2.06639
LeftToes  1.06245e-005 4.65855e-005 -8.18503e-006
283
root  60.811 39.4817 13.4451 -0.985859 -20.8434 1.92259
RightUpLeg  -23.7693 -17.8253 -5.00197
RightLeg  29.2638 6.85882 3.91987
RightFoot  -0.462149 -1.41472 14.7431
RightToes  0.000482159 0.542163 -0.142577
Spine  38.4278 -1.50673 -1.41777
Spine1  -9.84642 -1.65343 0.0125612
HEad  -27.3715 -21.8787 19.5686
LeftShoulder1  10.3293 -15.1604 -48.3155
LeftArm  -2.48729 23.3953 -22.3255
LeftForeArm  34.6678 -12.2663 -6.08023
LeftHand  -0.25398 0.0180481 5.50724
RightShoulder  5.01652 9.04897 34.0156
RightArm  -0.9809 -8.79316 35.6495
RightForeArm  -0.625428 34.6497 7.80828
RightHand  -2.50441 6.79338 -23.9359
LeftUpLeg  -10.4302 23.9484 1.86171
LeftLeg  18.3935 12.3241 -0.719495
LeftFoot  -7.51005 0.1423 -2.90073
LeftToes  1.06245e-005 4.65855e-005 -8.18503e-006
284
root  60.7157 39.6653 14.0315 -1.64421 -23.6239 1.99438
RightUpLeg  -23.706 -21.0507 -4.39292
RightLeg  28.0304 5.03354 2.68602
RightFoot  -0.729306 -1.12947 12.0632
RightToes  0.000482159 0.542163 -0.142577
Spine  37.21 -1.56453 -1.89057
Spine1  -9.35722 -1.96271 0.457978
HEad  -26.0728 -21.7833 19.4399
LeftShoulder1  10.1623 -14.9116 -48.1752
LeftArm  -2.86824 23.3614 -22.5378
LeftForeArm  34.3596 -12.205 -6.04122
LeftHand  -0.25398 0.0180481 5.50724
RightShoulder  4.93739 8.77662 34.2543
RightArm  -1.16321 -10.0974 35.5051
RightForeArm  -2.30576 30.9272 6.9003
RightHand  -2.45701 6.78304 -23.5188
LeftUpLeg  -6.50358 18.8446 3.86412
LeftLeg  15.6977 19.9186 -2.1308
LeftFoot  -7.39154 0.179059 -3.90603
LeftToes  1.06245e-005 4.65855e-005 -8.18503e-006
285
root  60.5637 39.7904 14.5992 -2.09247 -26.4019 2.14289
RightUpLeg  -23.7278 -24.6155 -3.44192
RightLeg  25.2051 2.58616 1.11684
RightFoot  -0.991912 -0.884799 9.67641
RightToes  0.000482159 0.542163 -0.142577
Spine  36.0742 -1.70075 -2.40048
Spine1  -9.08941 -2.33925 0.974397
HEad  -24.5571 -21.2609 19.1042
LeftShoulder1  10.0295 -14.7167 -48.0528
LeftArm  -3.33704 22.8489 -22.6831
LeftForeArm  33.8261 -12.2582 -5.96113
LeftHand  -0.25398 0.0180481 5.50724
RightShoulder  4.80405 8.47131 34.1672
RightArm  -1.13048 -11.2381 35.6952
RightForeArm  -4.01309 27.1016 6.03499
RightHand  -2.44075 6.93556 -23.0973
LeftUpLeg  -3.51362 14.5066 4.6687
LeftLeg  13.2943 26.7644 -3.07157
LeftFoot  -7.25493 0.196975 -4.30211
LeftToes  1.06245e-005 4.65855e-005 -8.18503e-006
286
root  60.3216 39.8428 15.1638 -2.44671 -29.1167 2.44992
RightUpLeg  -23.7689 -28.5035 -2.06416
RightLeg  21.1792 0.625098 0.0107987
RightFoot  -1.2082 -0.718299 7.9956
RightToes  0.000482159 0.542163 -0.142577
Spine  34.8805 -1.85061 -3.16465
Spine1  -8.86755 -2.76475 1.56196
HEad  -22.9512 -20.1728 18.5975
LeftShoulder1  9.9326 -14.5533 -48.0191
LeftArm  -3.68402 21.7908 -22.4904
LeftForeArm  33.4359 -12.3724 -5.88459
LeftHand  -0.25398 0.0180481 5.50724
RightShoulder  4.70815 8.25702 34.0838
RightArm  -0.788744 -12.3744 35.8453
RightForeArm  -6.51067 23.6482 5.4466
RightHand  -2.63176 7.44109 -23.8834
LeftUpLeg  -1.18456 11.7213 4.72829
LeftLeg  11.5237 31.8817 -3.54007
LeftFoot  -7.24419 0.213364 -4.75056
LeftToes  1.06245e-005 4.65855e-005 -8.18503e-006
287
root  59.9868 39.8362 15.7207 -3.01486 -31.5838 3.02527
RightUpLeg  -23.6253 -32.6103 -0.632056
RightLeg  16.7604 -0.892568 -0.319743
RightFoot  -1.50914 -0.564429 6.43302
RightToes  0.000482159 0.542163 -0.142577
Spine  33.8498 -1.95684 -4.26828
Spine1  -8.69267 -3.26419 2.43833
HEad  -21.3286 -18.9153 18.0405
LeftShoulder1  9.86368 -14.4273 -48.0207
LeftArm  -3.88781 20.1917 -21.96
LeftForeArm  33.3655 -12.5218 -5.81893
LeftHand  -0.25398 0.0180481 5.50724
RightShoulder  4.64587 8.12617 33.9989
RightArm  -0.658194 -13.6837 35.8536
RightForeArm  -8.17356 20.7329 5.50589
RightHand  -2.95705 8.25816 -25.1892
LeftUpLeg  1.04755 10.6488 4.38241
LeftLeg  10.1187 34.856 -3.74506
LeftFoot  -7.25414 0.25645 -5.96381
LeftToes  1.06245e-005 4.65855e-005 -8.18503e-006
288
root  59.5671 39.7881 16.2576 -3.78534 -33.778 3.84611
RightUpLeg  -22.4715 -33.7555 -1.03875
RightLeg  12.6825 -5.99537 0.528228
RightFoot  -1.9709 -0.452197 5.35093
RightToes  0.000482159 0.542163 -0.142577
Spine  33.0936 -1.99879 -5.58048
Spine1  -8.64195 -3.79726 3.63427
HEad  -19.8148 -17.9371 17.4512
LeftShoulder1  9.77311 -14.3117 -47.8865
LeftArm  -4.48317 18.2201 -21.4119
LeftForeArm  33.4689 -12.8011 -5.63121
LeftHand  -0.25398 0.0180481 5.50724
RightShoulder  4.54322 7.95449 33.7035
RightArm  -0.998589 -15.2606 35.9287
RightForeArm  -7.3993 18.4655 6.05591
RightHand  -3.15259 8.93825 -25.5702
LeftUpLeg  3.20487 10.2701 3.85406
LeftLeg  9.00131 37.0723 -3.82103
LeftFoot  -7.22787 0.298111 -7.09056
LeftToes  1.06245e-005 4.65855e-005 -8.18503e-006
289
root  59.0588 39.7052 16.7798 -4.54565 -35.8699 4.7647
RightUpLeg  -19.7073 -28.8971 -4.305
RightLeg  8.80086 -17.4632 2.91422
RightFoot  -2.41451 -0.398419 4.87918
RightToes  0.000482159 0.542163 -0.142577
Spine  32.3904 -2.02502 -6.85554
Spine1  -8.54876 -4.29739 4.84674
HEad  -18.5962 -17.0448 16.861
LeftShoulder1  9.62196 -14.1861 -47.474
LeftArm  -5.75637 16.1936 -21.072
LeftForeArm  33.1027 -13.5395 -5.1892
LeftHand  -0.25398 0.0180481 5.50724
RightShoulder  4.43055 7.77087 33.3529
RightArm  -0.975237 -17.0898 36.116
RightForeArm  -5.43986 17.1356 6.42351
RightHand  -3.07089 8.90233 -24.9921
LeftUpLeg  5.02991 9.93285 3.32019
LeftLeg  8.47145 39.399 -3.64932
LeftFoot  -7.257 0.313068 -7.55588
LeftToes  1.06245e-005 4.65855e-005 -8.18503e-006
290
root  58.4591 39.5995 17.3009 -5.31274 -37.9048 5.73422
RightUpLeg  -17.1912 -22.6558 -7.13595
RightLeg  4.92218 -28.698 5.71493
RightFoot  -2.1463 -0.295798 3.51212
RightToes  0.000482159 0.542163 -0.142577
Spine  31.5747 -2.10357 -7.92469
Spine1  -8.20908 -4.78344 5.86452
HEad  -17.6581 -15.8099 16.3243
LeftShoulder1  9.45027 -14.0921 -46.8638
LeftArm  -7.27771 14.3732 -20.7803
LeftForeArm  31.6866 -15.0395 -4.55146
LeftHand  -0.25398 0.0180481 5.50724
RightShoulder  4.3915 7.69741 33.262
RightArm  -0.692172 -19.1124 36.2801
RightForeArm  -3.5029 16.5885 6.53483
RightHand  -2.87698 8.2603 -24.5361
LeftUpLeg  6.82745 9.67172 2.87379
LeftLeg  8.08061 41.3135 -3.53147
LeftFoot  -7.33285 0.345627 -8.6107
LeftToes  1.06245e-005 4.65855e-005 -8.18503e-006
